<?xml version="1.0" encoding="UTF-8" standalone="no"?>
<svg
   height="24"
   viewBox="0 -960 960 960"
   width="24"
   fill="#000000"
   version="1.1"
   id="svg1"
   xmlns="http://www.w3.org/2000/svg"
   xmlns:svg="http://www.w3.org/2000/svg">
  <defs
     id="defs1" />
  <path
     d="M 346,-160 H 240 q -33,0 -56.5,-23.5 Q 160,-207 160,-240 v -106 l -77,-78 q -11,-12 -17,-26.5 -6,-14.5 -6,-29.5 0,-15 6,-29.5 6,-14.5 17,-26.5 l 77,-78 v -106 q 0,-33 23.5,-56.5 Q 207,-800 240,-800 h 106 l 78,-77 q 12,-11 26.5,-17 14.5,-6 29.5,-6 15,0 29.5,6 14.5,6 26.5,17 l 78,77 h 106 q 33,0 56.5,23.5 23.5,23.5 23.5,56.5 v 106 l 77,78 q 11,12 17,26.5 6,14.5 6,29.5 0,15 -6,29.5 -6,14.5 -17,26.5 l -77,78 v 106 q 0,33 -23.5,56.5 Q 753,-160 720,-160 H 614 l -78,77 q -12,11 -26.5,17 -14.5,6 -29.5,6 -15,0 -29.5,-6 Q 436,-72 424,-83 Z m 134,-120 q 83,0 141.5,-58.5 Q 680,-397 680,-480 680,-563 621.5,-621.5 563,-680 480,-680 397,-680 338.5,-621.5 280,-563 280,-480 q 0,83 58.5,141.5 Q 397,-280 480,-280 Z m 0,-200 z m -100,240 100,100 100,-100 H 720 V -380 L 820,-480 720,-580 V -720 H 580 L 480,-820 380,-720 H 240 v 140 l -100,100 100,100 v 140 z m 100,-240 z"
     id="path1" />
</svg>
