<?xml version="1.0" encoding="UTF-8" standalone="no"?>
<svg
   height="24"
   viewBox="0 -960 960 960"
   width="24"
   fill="#000000"
   version="1.1"
   id="svg1"
   xmlns="http://www.w3.org/2000/svg"
   xmlns:svg="http://www.w3.org/2000/svg">
  <defs
     id="defs1" />
  <path
     d="m 480,-84 q -7,0 -13,-1 -6,-1 -12,-3 Q 320,-133 240,-254.5 160,-376 160,-516 v -189 q 0,-25 14.5,-45 14.5,-20 37.5,-29 l 240,-90 q 14,-5 28,-5 14,0 28,5 l 240,90 q 23,9 37.5,29 14.5,20 14.5,45 v 189 q 0,140 -80,261.5 -80,121.5 -215,166.5 -6,2 -12,3 -6,1 -13,1 z"
     id="path1" />
</svg>
